<mxfile host="app.diagrams.net" modified="2023-12-06T11:17:32.969Z" agent="Mozilla/5.0 (X11; Ubuntu; Linux x86_64; rv:120.0) Gecko/20100101 Firefox/120.0" etag="bBuTdK4r19sc4LvyOQv6" version="22.1.5" type="device">
  <diagram id="C5RBs43oDa-KdzZeNtuy" name="Page-1">
    <mxGraphModel dx="2004" dy="1106" grid="1" gridSize="10" guides="1" tooltips="1" connect="1" arrows="1" fold="1" page="1" pageScale="1" pageWidth="827" pageHeight="1169" math="0" shadow="0">
      <root>
        <mxCell id="WIyWlLk6GJQsqaUBKTNV-0" />
        <mxCell id="WIyWlLk6GJQsqaUBKTNV-1" parent="WIyWlLk6GJQsqaUBKTNV-0" />
        <mxCell id="GLT_qzx9ewXfkXnBj9v7-14" style="edgeStyle=orthogonalEdgeStyle;rounded=0;orthogonalLoop=1;jettySize=auto;html=1;" edge="1" parent="WIyWlLk6GJQsqaUBKTNV-1" source="WIyWlLk6GJQsqaUBKTNV-3" target="GLT_qzx9ewXfkXnBj9v7-7">
          <mxGeometry relative="1" as="geometry" />
        </mxCell>
        <mxCell id="WIyWlLk6GJQsqaUBKTNV-3" value="Find nearest ball" style="rounded=1;whiteSpace=wrap;html=1;fontSize=12;glass=0;strokeWidth=1;shadow=0;" parent="WIyWlLk6GJQsqaUBKTNV-1" vertex="1">
          <mxGeometry x="180" y="120" width="120" height="40" as="geometry" />
        </mxCell>
        <mxCell id="GLT_qzx9ewXfkXnBj9v7-11" value="Yes" style="edgeStyle=orthogonalEdgeStyle;rounded=0;orthogonalLoop=1;jettySize=auto;html=1;" edge="1" parent="WIyWlLk6GJQsqaUBKTNV-1" source="GLT_qzx9ewXfkXnBj9v7-7" target="GLT_qzx9ewXfkXnBj9v7-10">
          <mxGeometry relative="1" as="geometry" />
        </mxCell>
        <mxCell id="GLT_qzx9ewXfkXnBj9v7-13" value="&lt;div&gt;No&lt;/div&gt;" style="edgeStyle=orthogonalEdgeStyle;rounded=0;orthogonalLoop=1;jettySize=auto;html=1;" edge="1" parent="WIyWlLk6GJQsqaUBKTNV-1" source="GLT_qzx9ewXfkXnBj9v7-7" target="GLT_qzx9ewXfkXnBj9v7-9">
          <mxGeometry relative="1" as="geometry">
            <Array as="points">
              <mxPoint x="240" y="332.5" />
              <mxPoint x="240" y="332.5" />
            </Array>
          </mxGeometry>
        </mxCell>
        <mxCell id="GLT_qzx9ewXfkXnBj9v7-7" value="Is another robot targeting it?" style="rhombus;whiteSpace=wrap;html=1;" vertex="1" parent="WIyWlLk6GJQsqaUBKTNV-1">
          <mxGeometry x="177" y="235" width="126" height="90" as="geometry" />
        </mxCell>
        <mxCell id="GLT_qzx9ewXfkXnBj9v7-18" value="No" style="edgeStyle=orthogonalEdgeStyle;rounded=0;orthogonalLoop=1;jettySize=auto;html=1;" edge="1" parent="WIyWlLk6GJQsqaUBKTNV-1" source="GLT_qzx9ewXfkXnBj9v7-9" target="GLT_qzx9ewXfkXnBj9v7-17">
          <mxGeometry relative="1" as="geometry">
            <Array as="points">
              <mxPoint x="320" y="417.5" />
            </Array>
          </mxGeometry>
        </mxCell>
        <mxCell id="GLT_qzx9ewXfkXnBj9v7-19" value="Yes" style="edgeStyle=orthogonalEdgeStyle;rounded=0;orthogonalLoop=1;jettySize=auto;html=1;" edge="1" parent="WIyWlLk6GJQsqaUBKTNV-1" source="GLT_qzx9ewXfkXnBj9v7-9" target="GLT_qzx9ewXfkXnBj9v7-16">
          <mxGeometry relative="1" as="geometry">
            <Array as="points">
              <mxPoint x="160" y="417.5" />
            </Array>
          </mxGeometry>
        </mxCell>
        <mxCell id="GLT_qzx9ewXfkXnBj9v7-9" value="Is ball blue?" style="rhombus;whiteSpace=wrap;html=1;" vertex="1" parent="WIyWlLk6GJQsqaUBKTNV-1">
          <mxGeometry x="200" y="382.5" width="80" height="70" as="geometry" />
        </mxCell>
        <mxCell id="GLT_qzx9ewXfkXnBj9v7-42" style="edgeStyle=orthogonalEdgeStyle;rounded=0;orthogonalLoop=1;jettySize=auto;html=1;entryX=0.5;entryY=0;entryDx=0;entryDy=0;" edge="1" parent="WIyWlLk6GJQsqaUBKTNV-1" source="GLT_qzx9ewXfkXnBj9v7-10" target="GLT_qzx9ewXfkXnBj9v7-7">
          <mxGeometry relative="1" as="geometry">
            <Array as="points">
              <mxPoint x="410" y="202.5" />
              <mxPoint x="240" y="202.5" />
            </Array>
          </mxGeometry>
        </mxCell>
        <mxCell id="GLT_qzx9ewXfkXnBj9v7-10" value="Find next nearest" style="rounded=1;whiteSpace=wrap;html=1;" vertex="1" parent="WIyWlLk6GJQsqaUBKTNV-1">
          <mxGeometry x="354" y="257.5" width="120" height="45" as="geometry" />
        </mxCell>
        <mxCell id="GLT_qzx9ewXfkXnBj9v7-94" style="edgeStyle=orthogonalEdgeStyle;rounded=0;orthogonalLoop=1;jettySize=auto;html=1;entryX=0.5;entryY=0;entryDx=0;entryDy=0;" edge="1" parent="WIyWlLk6GJQsqaUBKTNV-1" source="GLT_qzx9ewXfkXnBj9v7-16" target="GLT_qzx9ewXfkXnBj9v7-43">
          <mxGeometry relative="1" as="geometry" />
        </mxCell>
        <mxCell id="GLT_qzx9ewXfkXnBj9v7-16" value="Go to ball" style="rounded=1;whiteSpace=wrap;html=1;" vertex="1" parent="WIyWlLk6GJQsqaUBKTNV-1">
          <mxGeometry x="100" y="480" width="120" height="40" as="geometry" />
        </mxCell>
        <mxCell id="GLT_qzx9ewXfkXnBj9v7-92" style="edgeStyle=orthogonalEdgeStyle;rounded=0;orthogonalLoop=1;jettySize=auto;html=1;" edge="1" parent="WIyWlLk6GJQsqaUBKTNV-1" source="GLT_qzx9ewXfkXnBj9v7-17" target="GLT_qzx9ewXfkXnBj9v7-16">
          <mxGeometry relative="1" as="geometry" />
        </mxCell>
        <mxCell id="GLT_qzx9ewXfkXnBj9v7-17" value="Swap ball" style="rounded=1;whiteSpace=wrap;html=1;" vertex="1" parent="WIyWlLk6GJQsqaUBKTNV-1">
          <mxGeometry x="260" y="480" width="120" height="40" as="geometry" />
        </mxCell>
        <mxCell id="GLT_qzx9ewXfkXnBj9v7-28" style="edgeStyle=orthogonalEdgeStyle;rounded=0;orthogonalLoop=1;jettySize=auto;html=1;" edge="1" parent="WIyWlLk6GJQsqaUBKTNV-1" source="GLT_qzx9ewXfkXnBj9v7-22" target="GLT_qzx9ewXfkXnBj9v7-25">
          <mxGeometry relative="1" as="geometry" />
        </mxCell>
        <mxCell id="GLT_qzx9ewXfkXnBj9v7-22" value="Swap ball" style="strokeWidth=2;html=1;shape=mxgraph.flowchart.start_2;whiteSpace=wrap;" vertex="1" parent="WIyWlLk6GJQsqaUBKTNV-1">
          <mxGeometry x="620" y="40" width="100" height="40" as="geometry" />
        </mxCell>
        <mxCell id="GLT_qzx9ewXfkXnBj9v7-24" style="edgeStyle=orthogonalEdgeStyle;rounded=0;orthogonalLoop=1;jettySize=auto;html=1;entryX=0.5;entryY=0;entryDx=0;entryDy=0;" edge="1" parent="WIyWlLk6GJQsqaUBKTNV-1" source="GLT_qzx9ewXfkXnBj9v7-23" target="WIyWlLk6GJQsqaUBKTNV-3">
          <mxGeometry relative="1" as="geometry" />
        </mxCell>
        <mxCell id="GLT_qzx9ewXfkXnBj9v7-23" value="Start" style="strokeWidth=2;html=1;shape=mxgraph.flowchart.start_2;whiteSpace=wrap;" vertex="1" parent="WIyWlLk6GJQsqaUBKTNV-1">
          <mxGeometry x="190" y="40" width="100" height="40" as="geometry" />
        </mxCell>
        <mxCell id="GLT_qzx9ewXfkXnBj9v7-30" style="edgeStyle=orthogonalEdgeStyle;rounded=0;orthogonalLoop=1;jettySize=auto;html=1;" edge="1" parent="WIyWlLk6GJQsqaUBKTNV-1" source="GLT_qzx9ewXfkXnBj9v7-25" target="GLT_qzx9ewXfkXnBj9v7-29">
          <mxGeometry relative="1" as="geometry" />
        </mxCell>
        <mxCell id="GLT_qzx9ewXfkXnBj9v7-25" value="Go to ball" style="rounded=1;whiteSpace=wrap;html=1;" vertex="1" parent="WIyWlLk6GJQsqaUBKTNV-1">
          <mxGeometry x="610" y="120" width="120" height="40" as="geometry" />
        </mxCell>
        <mxCell id="GLT_qzx9ewXfkXnBj9v7-38" style="edgeStyle=orthogonalEdgeStyle;rounded=0;orthogonalLoop=1;jettySize=auto;html=1;" edge="1" parent="WIyWlLk6GJQsqaUBKTNV-1" source="GLT_qzx9ewXfkXnBj9v7-29" target="GLT_qzx9ewXfkXnBj9v7-37">
          <mxGeometry relative="1" as="geometry" />
        </mxCell>
        <mxCell id="GLT_qzx9ewXfkXnBj9v7-29" value="Find blue ball" style="rounded=1;whiteSpace=wrap;html=1;fontSize=12;glass=0;strokeWidth=1;shadow=0;" vertex="1" parent="WIyWlLk6GJQsqaUBKTNV-1">
          <mxGeometry x="610" y="200" width="120" height="40" as="geometry" />
        </mxCell>
        <mxCell id="GLT_qzx9ewXfkXnBj9v7-40" style="edgeStyle=orthogonalEdgeStyle;rounded=0;orthogonalLoop=1;jettySize=auto;html=1;" edge="1" parent="WIyWlLk6GJQsqaUBKTNV-1" source="GLT_qzx9ewXfkXnBj9v7-37" target="GLT_qzx9ewXfkXnBj9v7-39">
          <mxGeometry relative="1" as="geometry" />
        </mxCell>
        <mxCell id="GLT_qzx9ewXfkXnBj9v7-37" value="Go to ball" style="rounded=1;whiteSpace=wrap;html=1;fontSize=12;glass=0;strokeWidth=1;shadow=0;" vertex="1" parent="WIyWlLk6GJQsqaUBKTNV-1">
          <mxGeometry x="610" y="280" width="120" height="40" as="geometry" />
        </mxCell>
        <mxCell id="GLT_qzx9ewXfkXnBj9v7-39" value="Go to spawn (without ball collision)" style="rounded=1;whiteSpace=wrap;html=1;fontSize=12;glass=0;strokeWidth=1;shadow=0;" vertex="1" parent="WIyWlLk6GJQsqaUBKTNV-1">
          <mxGeometry x="610" y="360" width="120" height="40" as="geometry" />
        </mxCell>
        <mxCell id="GLT_qzx9ewXfkXnBj9v7-93" style="edgeStyle=orthogonalEdgeStyle;rounded=0;orthogonalLoop=1;jettySize=auto;html=1;entryX=0;entryY=0.5;entryDx=0;entryDy=0;" edge="1" parent="WIyWlLk6GJQsqaUBKTNV-1" source="GLT_qzx9ewXfkXnBj9v7-43" target="WIyWlLk6GJQsqaUBKTNV-3">
          <mxGeometry relative="1" as="geometry">
            <Array as="points">
              <mxPoint x="80" y="580" />
              <mxPoint x="80" y="140" />
            </Array>
          </mxGeometry>
        </mxCell>
        <mxCell id="GLT_qzx9ewXfkXnBj9v7-43" value="Go to spawn" style="rounded=1;whiteSpace=wrap;html=1;fontSize=12;glass=0;strokeWidth=1;shadow=0;" vertex="1" parent="WIyWlLk6GJQsqaUBKTNV-1">
          <mxGeometry x="100" y="560" width="120" height="40" as="geometry" />
        </mxCell>
        <mxCell id="GLT_qzx9ewXfkXnBj9v7-95" style="edgeStyle=orthogonalEdgeStyle;rounded=0;orthogonalLoop=1;jettySize=auto;html=1;" edge="1" parent="WIyWlLk6GJQsqaUBKTNV-1" source="GLT_qzx9ewXfkXnBj9v7-54" target="GLT_qzx9ewXfkXnBj9v7-56">
          <mxGeometry relative="1" as="geometry" />
        </mxCell>
        <mxCell id="GLT_qzx9ewXfkXnBj9v7-54" value="Go to ball" style="strokeWidth=2;html=1;shape=mxgraph.flowchart.start_2;whiteSpace=wrap;" vertex="1" parent="WIyWlLk6GJQsqaUBKTNV-1">
          <mxGeometry x="990" y="40" width="100" height="40" as="geometry" />
        </mxCell>
        <mxCell id="GLT_qzx9ewXfkXnBj9v7-80" style="edgeStyle=orthogonalEdgeStyle;rounded=0;orthogonalLoop=1;jettySize=auto;html=1;entryX=0.5;entryY=0;entryDx=0;entryDy=0;" edge="1" parent="WIyWlLk6GJQsqaUBKTNV-1" source="GLT_qzx9ewXfkXnBj9v7-56" target="GLT_qzx9ewXfkXnBj9v7-79">
          <mxGeometry relative="1" as="geometry" />
        </mxCell>
        <mxCell id="GLT_qzx9ewXfkXnBj9v7-56" value="Turn expected angle" style="rounded=1;whiteSpace=wrap;html=1;fontSize=12;glass=0;strokeWidth=1;shadow=0;" vertex="1" parent="WIyWlLk6GJQsqaUBKTNV-1">
          <mxGeometry x="980" y="120" width="120" height="40" as="geometry" />
        </mxCell>
        <mxCell id="GLT_qzx9ewXfkXnBj9v7-65" value="End" style="strokeWidth=2;html=1;shape=mxgraph.flowchart.terminator;whiteSpace=wrap;" vertex="1" parent="WIyWlLk6GJQsqaUBKTNV-1">
          <mxGeometry x="990" y="690" width="100" height="60" as="geometry" />
        </mxCell>
        <mxCell id="GLT_qzx9ewXfkXnBj9v7-73" value="No" style="edgeStyle=orthogonalEdgeStyle;rounded=0;orthogonalLoop=1;jettySize=auto;html=1;entryX=1;entryY=0.5;entryDx=0;entryDy=0;" edge="1" parent="WIyWlLk6GJQsqaUBKTNV-1" source="GLT_qzx9ewXfkXnBj9v7-72" target="GLT_qzx9ewXfkXnBj9v7-56">
          <mxGeometry relative="1" as="geometry">
            <Array as="points">
              <mxPoint x="1130" y="310" />
              <mxPoint x="1130" y="140" />
            </Array>
          </mxGeometry>
        </mxCell>
        <mxCell id="GLT_qzx9ewXfkXnBj9v7-76" value="Yes" style="edgeStyle=orthogonalEdgeStyle;rounded=0;orthogonalLoop=1;jettySize=auto;html=1;" edge="1" parent="WIyWlLk6GJQsqaUBKTNV-1" source="GLT_qzx9ewXfkXnBj9v7-72" target="GLT_qzx9ewXfkXnBj9v7-75">
          <mxGeometry relative="1" as="geometry" />
        </mxCell>
        <mxCell id="GLT_qzx9ewXfkXnBj9v7-72" value="Is angle within tolerance?" style="rhombus;whiteSpace=wrap;html=1;" vertex="1" parent="WIyWlLk6GJQsqaUBKTNV-1">
          <mxGeometry x="1000" y="270" width="80" height="80" as="geometry" />
        </mxCell>
        <mxCell id="GLT_qzx9ewXfkXnBj9v7-78" style="edgeStyle=orthogonalEdgeStyle;rounded=0;orthogonalLoop=1;jettySize=auto;html=1;" edge="1" parent="WIyWlLk6GJQsqaUBKTNV-1" source="GLT_qzx9ewXfkXnBj9v7-75" target="GLT_qzx9ewXfkXnBj9v7-77">
          <mxGeometry relative="1" as="geometry" />
        </mxCell>
        <mxCell id="GLT_qzx9ewXfkXnBj9v7-75" value="Find distance estimate" style="rounded=1;whiteSpace=wrap;html=1;fontSize=12;glass=0;strokeWidth=1;shadow=0;" vertex="1" parent="WIyWlLk6GJQsqaUBKTNV-1">
          <mxGeometry x="980" y="390" width="120" height="40" as="geometry" />
        </mxCell>
        <mxCell id="GLT_qzx9ewXfkXnBj9v7-87" style="edgeStyle=orthogonalEdgeStyle;rounded=0;orthogonalLoop=1;jettySize=auto;html=1;" edge="1" parent="WIyWlLk6GJQsqaUBKTNV-1" source="GLT_qzx9ewXfkXnBj9v7-77" target="GLT_qzx9ewXfkXnBj9v7-82">
          <mxGeometry relative="1" as="geometry" />
        </mxCell>
        <mxCell id="GLT_qzx9ewXfkXnBj9v7-77" value="Go forwards expected distance" style="rounded=1;whiteSpace=wrap;html=1;fontSize=12;glass=0;strokeWidth=1;shadow=0;" vertex="1" parent="WIyWlLk6GJQsqaUBKTNV-1">
          <mxGeometry x="980" y="470" width="120" height="40" as="geometry" />
        </mxCell>
        <mxCell id="GLT_qzx9ewXfkXnBj9v7-81" style="edgeStyle=orthogonalEdgeStyle;rounded=0;orthogonalLoop=1;jettySize=auto;html=1;" edge="1" parent="WIyWlLk6GJQsqaUBKTNV-1" source="GLT_qzx9ewXfkXnBj9v7-79" target="GLT_qzx9ewXfkXnBj9v7-72">
          <mxGeometry relative="1" as="geometry" />
        </mxCell>
        <mxCell id="GLT_qzx9ewXfkXnBj9v7-79" value="Find ball" style="rounded=1;whiteSpace=wrap;html=1;fontSize=12;glass=0;strokeWidth=1;shadow=0;" vertex="1" parent="WIyWlLk6GJQsqaUBKTNV-1">
          <mxGeometry x="980" y="200" width="120" height="40" as="geometry" />
        </mxCell>
        <mxCell id="GLT_qzx9ewXfkXnBj9v7-84" value="No" style="edgeStyle=orthogonalEdgeStyle;rounded=0;orthogonalLoop=1;jettySize=auto;html=1;" edge="1" parent="WIyWlLk6GJQsqaUBKTNV-1" source="GLT_qzx9ewXfkXnBj9v7-82" target="GLT_qzx9ewXfkXnBj9v7-83">
          <mxGeometry relative="1" as="geometry" />
        </mxCell>
        <mxCell id="GLT_qzx9ewXfkXnBj9v7-96" value="Yes" style="edgeStyle=orthogonalEdgeStyle;rounded=0;orthogonalLoop=1;jettySize=auto;html=1;" edge="1" parent="WIyWlLk6GJQsqaUBKTNV-1" source="GLT_qzx9ewXfkXnBj9v7-82" target="GLT_qzx9ewXfkXnBj9v7-65">
          <mxGeometry relative="1" as="geometry" />
        </mxCell>
        <mxCell id="GLT_qzx9ewXfkXnBj9v7-82" value="have we picked up expected ball" style="rhombus;whiteSpace=wrap;html=1;" vertex="1" parent="WIyWlLk6GJQsqaUBKTNV-1">
          <mxGeometry x="985" y="560" width="110" height="80" as="geometry" />
        </mxCell>
        <mxCell id="GLT_qzx9ewXfkXnBj9v7-85" style="edgeStyle=orthogonalEdgeStyle;rounded=0;orthogonalLoop=1;jettySize=auto;html=1;entryX=1;entryY=0.5;entryDx=0;entryDy=0;" edge="1" parent="WIyWlLk6GJQsqaUBKTNV-1" source="GLT_qzx9ewXfkXnBj9v7-83" target="GLT_qzx9ewXfkXnBj9v7-56">
          <mxGeometry relative="1" as="geometry">
            <Array as="points">
              <mxPoint x="1190" y="140" />
            </Array>
          </mxGeometry>
        </mxCell>
        <mxCell id="GLT_qzx9ewXfkXnBj9v7-83" value="Find ball" style="rounded=1;whiteSpace=wrap;html=1;fontSize=12;glass=0;strokeWidth=1;shadow=0;" vertex="1" parent="WIyWlLk6GJQsqaUBKTNV-1">
          <mxGeometry x="1130" y="580" width="120" height="40" as="geometry" />
        </mxCell>
        <mxCell id="GLT_qzx9ewXfkXnBj9v7-91" value="Find Ball" style="strokeWidth=2;html=1;shape=mxgraph.flowchart.start_2;whiteSpace=wrap;" vertex="1" parent="WIyWlLk6GJQsqaUBKTNV-1">
          <mxGeometry x="1490" y="40" width="100" height="40" as="geometry" />
        </mxCell>
      </root>
    </mxGraphModel>
  </diagram>
</mxfile>
